<svg xmlns="http://www.w3.org/2000/svg" viewBox="0 0 16 16" shape-rendering="crispEdges" fill="currentColor"><rect x="6" y="1" width="2" height="1"/><rect x="6" y="2" width="2" height="1"/><rect x="6" y="3" width="2" height="1"/><rect x="3" y="4" width="2" height="1"/><rect x="6" y="4" width="2" height="1"/><rect x="9" y="4" width="2" height="1"/><rect x="3" y="5" width="2" height="1"/><rect x="6" y="5" width="2" height="1"/><rect x="9" y="5" width="2" height="1"/><rect x="0" y="6" width="2" height="1"/><rect x="3" y="6" width="2" height="1"/><rect x="6" y="6" width="2" height="1"/><rect x="9" y="6" width="2" height="1"/><rect x="12" y="6" width="2" height="1"/><rect x="0" y="7" width="2" height="1"/><rect x="3" y="7" width="2" height="1"/><rect x="6" y="7" width="2" height="1"/><rect x="9" y="7" width="2" height="1"/><rect x="12" y="7" width="2" height="1"/><rect x="0" y="8" width="2" height="1"/><rect x="3" y="8" width="2" height="1"/><rect x="6" y="8" width="2" height="1"/><rect x="9" y="8" width="2" height="1"/><rect x="12" y="8" width="2" height="1"/><rect x="0" y="9" width="2" height="1"/><rect x="3" y="9" width="2" height="1"/><rect x="6" y="9" width="2" height="1"/><rect x="9" y="9" width="2" height="1"/><rect x="12" y="9" width="2" height="1"/><rect x="3" y="10" width="2" height="1"/><rect x="6" y="10" width="2" height="1"/><rect x="9" y="10" width="2" height="1"/><rect x="3" y="11" width="2" height="1"/><rect x="6" y="11" width="2" height="1"/><rect x="9" y="11" width="2" height="1"/><rect x="6" y="12" width="2" height="1"/><rect x="6" y="13" width="2" height="1"/><rect x="6" y="14" width="2" height="1"/></svg>